<svg width="81" height="51" viewBox="0 0 81 51" fill="none" xmlns="http://www.w3.org/2000/svg">
<g clip-path="url(#clip0)">
<path d="M0.694706 50.8796C0.405997 50.7984 0.174128 50.6937 0 50.5637L0.306753 49.9047C0.474565 50.0234 0.673053 50.1194 0.90402 50.191C1.13499 50.2634 1.36595 50.2992 1.59602 50.2992C1.85315 50.2992 2.04262 50.2626 2.16532 50.1884C2.28802 50.1142 2.34937 50.0164 2.34937 49.8942C2.34937 49.8043 2.31328 49.7293 2.2402 49.6699C2.16802 49.6106 2.07419 49.5626 1.96142 49.5268C1.84774 49.491 1.69436 49.4509 1.50038 49.4081C1.20265 49.34 0.959055 49.2711 0.768688 49.203C0.579222 49.1349 0.415921 49.0249 0.279687 48.8731C0.143452 48.7221 0.0757861 48.5205 0.0757861 48.2682C0.0757861 48.0483 0.137137 47.8493 0.259838 47.6712C0.382539 47.4932 0.567493 47.3518 0.815603 47.247C1.06281 47.1423 1.36595 47.0908 1.72323 47.0908C1.97224 47.0908 2.21674 47.1196 2.45493 47.1772C2.69311 47.2348 2.90152 47.3177 3.08016 47.426L2.80138 48.0902C2.44049 47.892 2.07961 47.7934 1.71782 47.7934C1.4643 47.7934 1.27754 47.8327 1.15664 47.9121C1.03574 47.9915 0.975295 48.0954 0.975295 48.2255C0.975295 48.3555 1.04477 48.4515 1.18461 48.5143C1.32445 48.5772 1.53738 48.6392 1.82428 48.7002C2.12201 48.7683 2.36561 48.8373 2.55598 48.9054C2.74544 48.9734 2.90874 49.0817 3.04498 49.2292C3.18121 49.3767 3.24888 49.5765 3.24888 49.8288C3.24888 50.0452 3.18663 50.2416 3.06212 50.4205C2.93761 50.5986 2.74995 50.74 2.50094 50.8447C2.25193 50.9494 1.94788 51.0009 1.59061 51.0009C1.28205 51.0009 0.983415 50.9599 0.694706 50.8796Z" fill="#F98124"/>
<path d="M4.58363 50.551C4.27327 50.2525 4.11719 49.8257 4.11719 49.2706V47.1532H5.02211V49.2383C5.02211 49.9156 5.31262 50.2534 5.89275 50.2534C6.17514 50.2534 6.39167 50.1713 6.54054 50.0073C6.6894 49.8432 6.76429 49.5866 6.76429 49.2374V47.1523H7.65748V49.2697C7.65748 49.824 7.5023 50.2508 7.19104 50.5501C6.87977 50.8486 6.44581 50.9987 5.88733 50.9987C5.32886 50.9996 4.89399 50.8504 4.58363 50.551Z" fill="#F98124"/>
<path d="M11.422 47.321C11.6773 47.4327 11.8731 47.5916 12.0111 47.7967C12.1492 48.0018 12.2177 48.2453 12.2177 48.5263C12.2177 48.8039 12.1492 49.0457 12.0111 49.2525C11.8731 49.4594 11.6773 49.6182 11.422 49.7282C11.1667 49.8382 10.8662 49.8931 10.5198 49.8931H9.73214V50.9353H8.82812V47.1543H10.5198C10.8662 47.1534 11.1667 47.2093 11.422 47.321ZM11.09 49.009C11.2316 48.8955 11.302 48.7341 11.302 48.5255C11.302 48.3134 11.2316 48.1502 11.09 48.0367C10.9483 47.9232 10.7417 47.8665 10.4702 47.8665H9.73305V49.1792H10.4702C10.7417 49.1792 10.9483 49.1225 11.09 49.009Z" fill="#F98124"/>
<path d="M16.1667 50.2326V50.9352H13.1406V47.1543H16.0945V47.8569H14.0401V48.6782H15.8545V49.359H14.0401V50.2344H16.1667V50.2326Z" fill="#F98124"/>
<path d="M19.656 50.9352L18.9017 49.8818H18.8566H18.069V50.9352H17.1641V47.1543H18.8557C19.2022 47.1543 19.5026 47.2102 19.7579 47.3219C20.0133 47.4336 20.209 47.5924 20.3471 47.7975C20.4851 48.0027 20.5537 48.2462 20.5537 48.5272C20.5537 48.8082 20.4842 49.05 20.3444 49.2534C20.2045 49.4567 20.0069 49.613 19.7498 49.7203L20.6268 50.9352H19.656ZM19.4277 48.0367C19.2861 47.9232 19.0795 47.8665 18.8079 47.8665H18.0708V49.1844H18.8079C19.0795 49.1844 19.2861 49.1268 19.4277 49.0116C19.5694 48.8964 19.6397 48.7341 19.6397 48.5255C19.6397 48.3134 19.5685 48.1502 19.4277 48.0367Z" fill="#F98124"/>
<path d="M24.2013 50.7459C23.8756 50.5766 23.6203 50.3435 23.4362 50.0459C23.2522 49.7491 23.1602 49.4149 23.1602 49.0439C23.1602 48.673 23.2522 48.3387 23.4362 48.042C23.6203 47.7452 23.8756 47.5122 24.2013 47.3428C24.527 47.1735 24.8924 47.0889 25.2984 47.0889C25.7044 47.0889 26.0689 47.1735 26.3928 47.3428C26.7167 47.5122 26.9711 47.7452 27.1579 48.042C27.3437 48.3387 27.4367 48.673 27.4367 49.0439C27.4367 49.4149 27.3437 49.7491 27.1579 50.0459C26.972 50.3426 26.7167 50.5766 26.3928 50.7459C26.0689 50.9152 25.7044 50.9999 25.2984 50.9999C24.8924 50.9999 24.527 50.9152 24.2013 50.7459ZM25.9236 50.1C26.1095 49.997 26.2557 49.8539 26.3621 49.6706C26.4686 49.4873 26.5209 49.2778 26.5209 49.0439C26.5209 48.81 26.4677 48.6014 26.3621 48.4173C26.2557 48.234 26.1095 48.0908 25.9236 47.9878C25.7378 47.8849 25.5294 47.8342 25.2984 47.8342C25.0674 47.8342 24.859 47.8857 24.6732 47.9878C24.4873 48.0908 24.3412 48.234 24.2347 48.4173C24.1282 48.6005 24.0759 48.81 24.0759 49.0439C24.0759 49.2778 24.1291 49.4864 24.2347 49.6706C24.3403 49.8548 24.4864 49.997 24.6732 50.1C24.859 50.203 25.0674 50.2536 25.2984 50.2536C25.5294 50.2545 25.7378 50.203 25.9236 50.1Z" fill="white"/>
<path d="M31.9829 47.1533V50.9343H31.2404L29.2916 48.6388V50.9343H28.3984V47.1533H29.1464L31.0897 49.4488V47.1533H31.9829Z" fill="white"/>
<path d="M33.1875 47.1533H34.0924V50.2212H36.052V50.9343H33.1875V47.1533Z" fill="white"/>
<path d="M36.8398 47.1533H37.7448V50.9343H36.8398V47.1533Z" fill="white"/>
<path d="M42.5337 47.1533V50.9343H41.7912L39.8424 48.6388V50.9343H38.9492V47.1533H39.6972L41.6405 49.4488V47.1533H42.5337Z" fill="white"/>
<path d="M46.7682 50.2326V50.9352H43.7422V47.1543H46.696V47.8569H44.6417V48.6782H46.4561V49.359H44.6417V50.2344H46.7682V50.2326Z" fill="white"/>
<path d="M52.2007 50.1243H50.3863L50.0399 50.9343H49.1133L50.8555 47.1533H51.7487L53.4963 50.9343H52.5471L52.2007 50.1243ZM51.9165 49.4601L51.2966 48.0121L50.6768 49.4601H51.9165Z" fill="#F98124"/>
<path d="M54.9186 50.7486C54.5965 50.581 54.3429 50.3488 54.1589 50.0521C53.9748 49.7553 53.8828 49.4193 53.8828 49.0449C53.8828 48.6705 53.9748 48.3344 54.1589 48.0377C54.3429 47.7409 54.5965 47.5088 54.9186 47.3412C55.2406 47.1736 55.6024 47.0898 56.0048 47.0898C56.3431 47.0898 56.6499 47.1474 56.9233 47.2627C57.1966 47.3779 57.4267 47.5437 57.6126 47.7593L57.0315 48.2777C56.7672 47.9827 56.4397 47.8352 56.049 47.8352C55.8072 47.8352 55.5916 47.8867 55.4012 47.9888C55.2109 48.0909 55.0638 48.2349 54.9573 48.4182C54.8509 48.6015 54.7986 48.811 54.7986 49.0449C54.7986 49.2788 54.8518 49.4874 54.9573 49.6716C55.0629 49.8557 55.2109 49.998 55.4012 50.101C55.5907 50.204 55.8072 50.2546 56.049 50.2546C56.4397 50.2546 56.7672 50.1053 57.0315 49.806L57.6126 50.3244C57.4267 50.5444 57.1957 50.7119 56.9197 50.8271C56.6445 50.9423 56.3368 51 55.9985 51C55.6006 51 55.2406 50.9162 54.9186 50.7486Z" fill="#F98124"/>
<path d="M60.9975 50.1243H59.1832L58.8367 50.9343H57.9102L59.6523 47.1533H60.5455L62.2931 50.9343H61.344L60.9975 50.1243ZM60.7124 49.4601L60.0926 48.0121L59.4728 49.4601H60.7124Z" fill="#F98124"/>
<path d="M62.9805 47.1533H64.756C65.1801 47.1533 65.5554 47.2319 65.8811 47.3881C66.2068 47.5443 66.4603 47.7652 66.6408 48.0497C66.8212 48.3342 66.9114 48.6659 66.9114 49.0438C66.9114 49.4217 66.8212 49.7534 66.6408 50.0379C66.4603 50.3224 66.2068 50.5433 65.8811 50.6995C65.5554 50.8557 65.1801 50.9343 64.756 50.9343H62.9805V47.1533ZM64.7109 50.216C65.1016 50.216 65.4137 50.1104 65.6465 49.9C65.8793 49.6897 65.9957 49.4043 65.9957 49.0438C65.9957 48.6833 65.8793 48.3979 65.6465 48.1876C65.4137 47.9772 65.1025 47.8716 64.7109 47.8716H63.8845V50.216H64.7109Z" fill="#F98124"/>
<path d="M70.8971 50.2326V50.9352H67.8711V47.1543H70.825V47.8569H68.7697V48.6782H70.5841V49.359H68.7697V50.2344H70.8971V50.2326Z" fill="#F98124"/>
<path d="M75.452 50.9352L75.4465 48.6668L74.2962 50.5355H73.8884L72.7435 48.7149V50.9352H71.8945V47.1543H72.6425L74.105 49.5039L75.5458 47.1543H76.2883L76.2991 50.9352H75.452Z" fill="#F98124"/>
<path d="M79.3828 49.5955V50.9352H78.4779V49.585L76.9648 47.1543H77.9248L78.9687 48.8344L80.0125 47.1543H80.9003L79.3828 49.5955Z" fill="#F98124"/>
<path d="M37.4908 35.973C34.3718 35.973 31.519 35.3306 29.0398 34.0432C28.742 35.9215 27.8876 37.5999 26.4766 39.0793C29.6145 40.6905 33.2224 41.5327 37.0803 41.5327C37.6622 41.5327 38.236 41.5144 38.8008 41.4795L41.521 35.4999C40.2399 35.815 38.8965 35.973 37.4908 35.973ZM52.7734 6.05884C48.4365 2.01867 43.2695 -0.000976562 37.2698 -0.000976562C34.7607 -0.000976562 32.3987 0.333304 30.1847 1.00186C29.0813 1.3344 27.7721 1.88251 26.7319 2.38699C27.0955 2.64708 27.4473 2.93249 27.7857 3.24407C28.9089 4.27572 29.7318 5.43653 30.2505 6.72391C30.2803 6.7143 30.311 6.70034 30.3435 6.68725C30.4644 6.64012 30.5862 6.59386 30.708 6.54935C30.9479 6.46207 31.1906 6.37915 31.4342 6.30235C32.4555 5.98028 33.5057 5.74288 34.5685 5.59713C35.3165 5.49414 36.0716 5.43653 36.8277 5.43653C41.5012 5.43653 45.4366 6.90632 48.6368 9.84589C49.8232 10.936 50.7886 12.1178 51.5356 13.3938L51.5419 13.3798L54.2107 7.51291C53.7614 7.01804 53.2823 6.53364 52.7734 6.05884Z" fill="#F98124"/>
<path d="M25.5092 30.0388C25.5092 30.4917 25.4849 30.9369 25.438 31.3715C25.2232 33.3222 24.5258 35.0835 23.3511 36.6563C23.297 36.7287 23.2429 36.7994 23.1869 36.871C22.7945 37.3711 22.3524 37.8503 21.8625 38.3111C21.3013 38.8365 20.7131 39.3026 20.0978 39.7067C18.0461 41.0552 15.6913 41.7299 13.037 41.7299C9.66905 41.7299 6.69535 40.8387 4.11591 39.0565C2.69943 38.0781 1.4634 36.8309 0.406905 35.3148C2.22036 34.7649 3.93818 33.8834 5.56036 32.6685C7.43336 34.9613 9.86212 36.1082 12.8476 36.1082C14.006 36.1082 15.0508 35.9144 15.9828 35.526C16.6594 35.2432 17.2783 34.8592 17.8368 34.3722C18.3854 33.893 18.8202 33.3632 19.1405 32.7802C19.2253 32.6275 19.302 32.4704 19.3706 32.3089C19.6746 31.6046 19.8253 30.8304 19.8253 29.9873C19.8253 28.9312 19.477 27.8707 18.7814 26.8042C18.0867 25.7385 17.2233 24.8596 16.1912 24.1701C16.1488 24.1413 16.1055 24.1134 16.0612 24.0846C15.8366 23.9388 15.584 23.7896 15.3061 23.6351C14.7783 23.3418 14.1549 23.0337 13.4367 22.709C12.9134 22.4734 12.3396 22.2281 11.7153 21.975C11.5673 21.9148 11.4175 21.8546 11.2642 21.7943C11.1379 21.7446 11.0133 21.6949 10.8897 21.6434C8.81826 20.809 7.20961 20.04 6.0638 19.3392C4.84851 18.5964 3.79743 17.7105 2.91055 16.6833C2.02187 15.6551 1.37228 14.6331 0.961768 13.6163C0.548553 12.5986 0.34375 11.5093 0.34375 10.3494C0.34375 8.89881 0.656819 7.55907 1.28476 6.33192C1.86218 5.20078 2.70575 4.16477 3.81728 3.22303C5.24458 2.01159 6.86045 1.1737 8.66578 0.71025C9.78634 0.421355 10.98 0.277344 12.2458 0.277344C14.4364 0.277344 16.6567 0.735561 18.9095 1.65112C19.2758 1.80037 19.6322 1.96184 19.9769 2.1364C21.2806 2.79274 22.4408 3.62713 23.4585 4.64219C23.316 4.76874 23.1734 4.89879 23.0327 5.03146C21.7885 6.20711 20.7816 7.47179 20.0148 8.82811C18.6136 7.72141 16.8462 6.60161 15.0048 6.11809C14.2198 5.91211 13.4096 5.79428 12.5949 5.77246C12.5471 5.77071 12.5002 5.76984 12.4524 5.76984C11.1333 5.75326 9.79355 5.99328 8.64233 6.61471C7.54794 7.20559 6.68452 8.16217 6.311 9.24967C5.99974 10.153 6.0268 11.148 6.53926 12.1002C7.40178 13.7018 9.19358 14.661 10.841 15.4448C11.0188 15.5303 11.1947 15.6123 11.367 15.6935C11.9237 15.9545 12.53 16.2207 13.1841 16.493C13.7317 16.7208 14.2541 16.9451 14.7512 17.1659C14.9533 17.2558 15.1509 17.3448 15.344 17.4339C15.5786 17.5421 15.8059 17.6486 16.0279 17.7551C16.9337 18.1888 17.7367 18.6078 18.435 19.0136C18.7138 19.176 18.9754 19.3357 19.2208 19.4928C19.8054 19.869 20.3459 20.2608 20.8457 20.6693C21.5765 21.2646 22.2171 21.8956 22.7665 22.5598C23.6913 23.6796 24.3779 24.8596 24.8299 26.0998C25.1556 26.9927 25.364 27.9222 25.4542 28.8893C25.4912 29.2672 25.5092 29.6504 25.5092 30.0388Z" fill="white"/>
<path d="M81.0017 41.5757H75.2861L73.1786 36.8783L71.1368 32.3267L70.6704 31.2872L68.616 26.7102L65.1804 19.0532L62.3285 12.6966L59.4775 19.0532L56.0419 26.7102L53.9875 31.2872L53.5211 32.3267L51.4794 36.8783L49.3718 41.5757H43.6562L44.0478 40.7072L47.7298 32.5457L53.6366 19.4503L57.2833 11.3665L59.3512 6.78258L62.3285 0.181641L65.3067 6.78258L67.3746 11.3665L71.0214 19.4503L76.9282 32.5457L80.6101 40.7072L81.0017 41.5757Z" fill="white"/>
</g>
<defs>
<clipPath id="clip0">
<rect width="81" height="51" fill="white"/>
</clipPath>
</defs>
</svg>
